<svg width="32" height="32" viewBox="0 0 32 32" fill="none" xmlns="http://www.w3.org/2000/svg">
<path d="M0 32.002L2.26007 23.7846C0.865444 21.3793 0.13263 18.6526 0.13397 15.8566C0.137989 7.11529 7.28527 0.00195312 16.067 0.00195312C20.3286 0.00328646 24.3289 1.65529 27.3379 4.65262C30.3455 7.64995 32.0013 11.634 32 15.8713C31.996 24.614 24.8487 31.7273 16.067 31.7273C13.401 31.726 10.7738 31.0606 8.44679 29.7966L0 32.002ZM8.83798 26.926C11.0833 28.2526 13.2268 29.0473 16.0616 29.0486C23.3603 29.0486 29.3059 23.1366 29.3099 15.8686C29.3126 8.58595 23.3951 2.68195 16.0723 2.67929C8.76831 2.67929 2.82676 8.59129 2.82408 15.858C2.82274 18.8246 3.69622 21.046 5.16319 23.37L3.82483 28.234L8.83798 26.926ZM24.0931 19.6406C23.994 19.4753 23.7287 19.3766 23.3295 19.178C22.9316 18.9793 20.9743 18.0206 20.6086 17.8886C20.2442 17.7566 19.9789 17.69 19.7123 18.0873C19.447 18.4833 18.6834 19.3766 18.4516 19.6406C18.2199 19.9046 17.9868 19.938 17.5889 19.7393C17.191 19.5406 15.9076 19.1233 14.387 17.7726C13.2041 16.722 12.4043 15.4246 12.1725 15.0273C11.9407 14.6313 12.1484 14.4166 12.3466 14.2193C12.5262 14.042 12.7445 13.7566 12.9441 13.5246C13.1464 13.2953 13.2121 13.13 13.3461 12.8646C13.4787 12.6006 13.413 12.3686 13.3126 12.17C13.2121 11.9726 12.4163 10.022 12.0854 9.22862C11.7612 8.45662 11.433 8.56062 11.1891 8.54862L10.4255 8.53529C10.1603 8.53529 9.72888 8.63395 9.36448 9.03129C9.00008 9.42862 7.9712 10.386 7.9712 12.3366C7.9712 14.2873 9.39797 16.1713 9.59625 16.4353C9.79586 16.6993 12.4029 20.702 16.3965 22.418C17.3464 22.826 18.0886 23.07 18.666 23.2526C19.6199 23.554 20.488 23.5113 21.1739 23.41C21.9389 23.2966 23.5291 22.4513 23.8613 21.526C24.1936 20.5993 24.1936 19.806 24.0931 19.6406Z" fill="white"/>
</svg>
